<svg xmlns="http://www.w3.org/2000/svg" xmlns:xlink="http://www.w3.org/1999/xlink" viewBox="0 0 302.29 50.93"><defs><style>.cls-1{fill:url(#linear-gradient);}.cls-2{fill:url(#linear-gradient-2);}.cls-3{fill:url(#linear-gradient-3);}.cls-4{fill:url(#linear-gradient-4);}.cls-5{fill:url(#linear-gradient-5);}.cls-6{fill:url(#linear-gradient-6);}.cls-12,.cls-7{fill:#3e3a39;}.cls-10,.cls-7,.cls-8,.cls-9{fill-rule:evenodd;}.cls-11,.cls-8{fill:#e83828;}.cls-9{fill:#21acb0;}.cls-10{fill:#f39800;}.cls-13{fill:#040000;}.cls-14{fill:#df610f;}</style><linearGradient id="linear-gradient" x1="174.55" y1="39.33" x2="192.43" y2="39.33" gradientUnits="userSpaceOnUse"><stop offset="0" stop-color="#0c3489"/><stop offset="0.68" stop-color="#21acb0"/></linearGradient><linearGradient id="linear-gradient-2" x1="147.82" y1="25.42" x2="192.8" y2="25.42" xlink:href="#linear-gradient"/><linearGradient id="linear-gradient-3" x1="195.05" y1="42.14" x2="207.56" y2="42.14" xlink:href="#linear-gradient"/><linearGradient id="linear-gradient-4" x1="207.89" y1="38.26" x2="214.93" y2="38.26" xlink:href="#linear-gradient"/><linearGradient id="linear-gradient-5" x1="212.22" y1="41.79" x2="224.04" y2="41.79" xlink:href="#linear-gradient"/><linearGradient id="linear-gradient-6" x1="224.21" y1="41.54" x2="234.18" y2="41.54" xlink:href="#linear-gradient"/></defs><title>資產 7</title><g id="圖層_2" data-name="圖層 2"><g id="圖層_1-2" data-name="圖層 1"><path class="cls-1" d="M192,42.21c-.22,0-.57.48-1,.54-2.58.42-10.91-7.55-15.76-12a10.85,10.85,0,0,0-.74,2.36c.34,2.64,3.87,8.11,5.18,9.29,1.56,1.93,7,6.93,7.77,5,1-2.76,2.82-1.45,4.75-4.47a.74.74,0,0,0,.18-.48A.35.35,0,0,0,192,42.21Z"/><path class="cls-2" d="M176,7.64c.25-.2.45-.71,1-.92a2.59,2.59,0,0,1,1.53,0,7.49,7.49,0,0,0,1.88.2c.14-.06.42-.29.66-.21s.4,1,.57,1.22-.12.49-.26.64.29.69.33.8a2.16,2.16,0,0,1,.1.81,5.64,5.64,0,0,0,0,.72c.05.14.6.88.51,1s-.53.25-.53.25a2.88,2.88,0,0,1-.05.69c-.08.26-.19.15-.25.49s0,.77-.39.9a3.6,3.6,0,0,1-1.08.08l-.42-.06-.4.77a14.67,14.67,0,0,1,.94,3.27,30.25,30.25,0,0,1-.17,3.81c0,1-.12,1.76-.12,2.72,7.32-4.43,13.93-10.93,12.86-17.6-.4-2.45-4.16-8.91-17.21-6.79-11.59,1.87-22.12,9.08-24.83,12.87-1.55,2.19-2,3.77-1.77,5a3.45,3.45,0,0,0,3.36,2.84,8.06,8.06,0,0,0,5.66-3.63.5.5,0,0,0,.11-.36.52.52,0,0,0-.56-.46.16.16,0,0,0-.12.05,3.08,3.08,0,0,1-1.34.86c-.25,0-.83.1-.85-.09-.08-.47,1.18-2.22,3.61-4.16A49.67,49.67,0,0,1,171,6.87,10,10,0,0,0,170.68,8l-.08.1c-.73,1-4.92,9.53-9,18.13a4.13,4.13,0,0,0-2.26.29c-.58.79-11.52,18.78-11.54,18.86a1.4,1.4,0,0,0,.2.75,12.88,12.88,0,0,0,1.06.91,7.94,7.94,0,0,1,1,1l.82.16.58.22,1.45.76a1.4,1.4,0,0,0,.92,1.59,1.37,1.37,0,0,0,1.7-.94l.94-.35a3.19,3.19,0,0,0,.52-.12l.07,0c.16,0,.09,0,0,0a2,2,0,0,0,1.91-1.66c.46-1.59,1.35-3.92,2.39-6.47a23.85,23.85,0,0,1,1.92-3,25.72,25.72,0,0,0,1.88-2.53l0,0,6.45-9.1a.64.64,0,0,0,0-.89c-.24-.17-.61,0-.85.29l-2.3,3.24a3.06,3.06,0,0,1-1.53.13c.26-.49.51-1,.4-1.25-.64-1.17,1.52-1.76,1.6-2.45a2.76,2.76,0,0,1,.83-1.8,3.53,3.53,0,0,0,1.24-1.45c.35-.83.89-3.38,1.19-3.94s.63-1.77,1-2.49A7.13,7.13,0,0,1,175.67,14c.28-.11.47-.9.47-.9a6.12,6.12,0,0,1-.68-.85,6.07,6.07,0,0,1-.16-1.43,5,5,0,0,1,.06-1.41A4.47,4.47,0,0,1,176,7.64Zm-19,41.74,0,0h0Z"/><path class="cls-3" d="M206.69,46.08l-1.47.23-1.63.1-2.17-.1-.11-.12L200,46l-1.18-.33-.76-.43L197.9,45l-.07-.16.17-.48.66-.07,1.41-.54.1-.15.45-.16.92-.66.31-.17.33-.26h.11l.33-.17,0-.16.59-.49.66-.64.53-.53.23-.18.38-.33.21-.28,0-.22.45-.59,0-.16,0-.2.22-.43.07-.67-.17-.5.11-.11L206,36.3l-.26-.27-1-.11-1,.33-2.17.92-1.47.92-2,1.47-.38.28-.48.54-.56.5-.75,1-.65.92-.05.49v.43l-.08.23.08.15v.11l.15.6-.05.16.05.38.45,1,.43.59.49.49.43.32.21.16.22,0,.11,0H198l.06.05V48l.1,0,.38.11h.23l.1.1h.43l.11.07h.33l.22,0,.16-.12h.59l0,0,.4,0,.64-.1.44-.07.69-.09.17-.17h.33l0,0,.28,0,.21,0,.12-.16h.26l.71-.28.11-.17.43,0,.33-.11,0-.1.76-.38.82-.49v-.12h-.11Zm-7.56-5.25.66-.66,1.32-1.06,1.3-.64,1-.43.74-.13h.11l-.87,1.15-.64.63-.71.66-.89.57-1.12.58-1.18.43h-.66Z"/><polygon class="cls-4" points="211.02 37.49 211.27 37.01 211.46 36.67 211.79 36 212.09 35.41 212.67 34.36 212.82 34.03 212.96 33.82 213.19 33.25 213.39 33.01 214.06 31.75 214.16 31.37 214.55 30.55 214.93 29.44 214.93 29 214.83 28.81 214.5 28.39 214.16 28.33 213.97 28.43 213.72 28.77 212.96 29.73 211.6 31.75 211.08 32.77 210.89 33.05 209.63 35.47 209.15 36.82 209.04 37.01 208.38 38.98 208 41.01 208.08 41.16 208 41.3 207.89 42.31 207.89 43.13 208.08 44.53 208.33 45.39 208.38 45.69 209 46.8 209.19 47.07 209.63 47.51 210.01 47.85 210.89 48.19 211.27 48.19 211.41 48.14 211.9 47.85 211.94 47.85 211.94 47.7 212.33 47.51 212.09 47.37 211.94 47.28 211.56 47.32 210.83 47.18 210.3 46.6 210.3 46.4 210.07 46.17 210.11 45.92 209.92 45.5 209.68 44.62 209.63 43.99 209.59 43.8 209.59 43.17 209.68 43.03 209.68 42.75 209.63 42.6 209.73 42.46 209.73 42.12 209.78 41.92 209.92 41.05 210.01 40.53 210.11 40.23 210.2 40.13 210.16 39.76 210.42 39.42 210.49 39.04 210.49 38.94 210.83 38.21 210.78 38.07 211.02 37.87 211.02 37.49"/><path class="cls-5" d="M221.23,36.24l-.13-.11-.28-.21-.19-.08-.59,0-.35.17-.09,0-.4.76v-.72l-.12-.16-.62-.34-.36.13-.79.52-.86.91-1.31,1.64L213.66,41l-.89,1.69-.28.81-.09.19-.18,1.24.13,1,.17.74.26.63.31.3.41.32.8.08,1,0,.47-.12.82-.69.68-.86.36-.58.14-.3.06-.13.17-.37.13-.55.41-.86.37-1,0-.1.09,0,.19,1,.38,1.36.6,1.12.34.55.07.17.39.43.4.42.92.44.38,0,.51-.13.14-.05v-.16l.23-.33.14-.05.09-.19.33-.22,0-.08-.23,0-.35,0-.37-.13-.16-.19-.28-.21-.32-.66-.19-.09-.06-.28,0-.4-.14-.26,0-.37-.17-.45.12-.09-.09-.42L221.62,42l.12-.71-.05-.13,0-1.54,0-1.9-.24-.43v-.41Zm-2.69,2.57-1.2,2.54-1.07,2-1,1.62-.39-.06-.09-.4.09-1.2.44-1.17L216,40.8l1.14-1.73,1-1.21.76-.64.23,0Z"/><polygon class="cls-6" points="234.08 35.54 233.86 35.1 233.83 35.1 233.7 35.17 233.58 35.14 233.25 35.14 232.88 35.31 231.94 36.22 230.64 37.63 229.3 39.35 229.22 39.03 228.61 37.44 228.24 36.6 227.69 35.63 227.34 35.26 227.18 35.39 227.11 35.39 226.9 35.39 226.65 35.48 226.52 35.52 226.2 35.9 226.08 36.18 226.09 37.03 226.23 37.97 226.87 40.16 227.56 41.82 227.2 42.27 226.19 43.84 225.13 45.49 224.78 45.98 224.29 47.01 224.21 47.46 224.3 47.86 224.39 47.98 224.68 47.91 224.71 47.91 225 47.66 225.12 47.69 225.24 47.44 225.37 47.44 225.49 47.24 225.69 46.91 225.78 46.87 226.06 46.49 226.47 46.04 226.71 45.63 227.88 44.07 227.93 43.94 228.41 43.41 228.62 43.73 230.14 45.74 231.69 47.48 231.89 47.4 232.06 47.72 232.31 47.84 232.4 47.75 232.63 47.8 233.01 47.95 233.1 47.95 232.93 47.67 233.01 47.67 233.14 47.83 233.22 47.83 233.17 47.67 233.04 47.55 232.75 47.09 232.75 47.02 232.71 46.9 232.62 46.57 232.54 46.53 232.45 46.28 232.12 45.84 231.02 43.74 230.29 42.16 230.09 41.63 230.16 41.3 230.28 41.26 230.35 41.02 230.56 40.8 231.46 39.69 231.9 39.16 232.8 38.17 233.56 37.18 233.65 37.18 234.01 36.64 234.13 36.39 234.18 36.27 234.08 35.54"/><path class="cls-7" d="M274.75,27.34c-2-.89-2.18-1.91-2.18-1.91a.65.65,0,0,1,.51-.85,28.82,28.82,0,0,0,3.31.29,9.54,9.54,0,0,0,2-.18,13.67,13.67,0,0,0,4.29-1.44,5.71,5.71,0,0,0,.77-.51c.68-.56.61-.8-.16-1.25a27.92,27.92,0,0,1-2.68-1.74,1.38,1.38,0,0,1-.22-2.27,1.21,1.21,0,0,1,1.52-.08c.6.35,1.18.76,1.76,1.14a8.44,8.44,0,0,0,2.75,1.28,4.17,4.17,0,0,0,.88-.85,1.63,1.63,0,0,0-.93-2.65A13.38,13.38,0,0,0,284,16c-1.68-.08-3.47-1.3-3.74-2.75a2,2,0,0,1,0-1.07,20.78,20.78,0,0,1,1.34-3c1.87-2.22,3.32.25,3.32.25.43.65-.17.55-.35,1.95.27,1.5,2.64,1.28,4.37,1.64,1.5.26,2.76.64,3.44,1.65,0,0,1.6,2-1.77,6.28-.21.29-.22.43,0,.54,0,0,3.67,3.22,10.34,1.38,1.58-.36,1.46,1.52.8,2.54s-6.05,1.78-7.27,1.5a9.43,9.43,0,0,0-1-.18c-.49-.07-.62.07-.5.55s.33,1.26.48,1.9a2.56,2.56,0,0,1-1.85,3.31,9.27,9.27,0,0,1-4.06.37,1.42,1.42,0,0,1-1-2.26c.41-.7.6-.73,1.31-.36a1.71,1.71,0,0,0,2.25-.82A.59.59,0,0,0,290,29a2.31,2.31,0,0,0-1-.17c-.89.06-1.78.17-2.66.31-.52.09-.65.53-.76,1a2.38,2.38,0,0,1-1.71,2c-1,.29-1.64-.05-2-1.16s-.56-1.94-.84-2.91-.52-.9-1.62-.75C275.79,28,274.75,27.34,274.75,27.34Zm14.66-1.77c.31,0,.62-.05,1.08-.08.64-.33-1.38-1.09-2.05-1.46a2.05,2.05,0,0,0-2.55.35,3.34,3.34,0,0,0-.43.74S285,26.12,289.41,25.57Z"/><path class="cls-7" d="M209.24,7.89c.67-.3,1.22-.75,1.66-.91,1.84-.66,3.5,2,3,3.66-.71,2.09-2.08,2.87-4,3.33-1,.23-.77,1.1-1.07,2-.14.42-.22.86-.35,1.28s0,.68.52.56c.71-.16,1.42-.39,2.13-.49,1.61-.21,2.55.32,3.72,2.1.82,1.25.5,2.62.35,3.93a4.91,4.91,0,0,1-2.39,4,3.58,3.58,0,0,1-2.36.85c-1-.19-1.59-1-1-1.9a7.85,7.85,0,0,0,.93-3.41c.17-1.11-.48-1.74-1.59-1.62l-.66.05c-.59.07-.84.23-1,.69-.55,1.56-1.08,3.12-1.64,4.68-.36,1-.76,2.05-1.16,3.08l-1,2.3c-.35,1.41-1.83,4.26-3.41,4.73a1.87,1.87,0,0,1-1.94-.5,1.54,1.54,0,0,1-.21-1.8c.59-1.57,1.44-3.22,2-4.81.37-1.15,1-2.91,1.49-4.25a34.89,34.89,0,0,0,1.3-4.84,23.36,23.36,0,0,0,.38-3.93c.05-1.31.12-1.35-1.22-1.14-.45.08-1,.11-1.44.17a4.56,4.56,0,0,1-3.25-.48,2.67,2.67,0,0,1-1.55-2.16,9.42,9.42,0,0,1,.05-1.12c.12-1.38.76-1.93,2-1.93,1.58,0,3.18.09,4.76,0a24.17,24.17,0,0,0,3.12-.52A25.76,25.76,0,0,0,209.24,7.89Z"/><path class="cls-7" d="M248.47,22c-.56,1.56-1.09,3.12-1.65,4.68-.36,1-.76,2.05-1.15,3.08l-1,2.3c-.37,1.41-1.84,4.26-3.41,4.73a1.88,1.88,0,0,1-1.95-.5,1.56,1.56,0,0,1-.21-1.8c.6-1.57,1.44-3.22,1.95-4.81.38-1.15,1-2.91,1.49-4.25a26.53,26.53,0,0,0,1-4.13"/><path class="cls-7" d="M219.34,13.83a1.77,1.77,0,0,0-2,1.74c-.16,1.94,0,2.84-.2,5.52,0,0-.78,8.4.36,10.32,3.38,4.67,3.4-2.87,3.4-2.87.06-1.42-.15-8.38-.15-8.38-.12-2.81.6-2.6,1.59-2.87s8.07-.82,8.54-1.81a1.73,1.73,0,0,0-.51-2.19c-.63-.54-3.85.21-4.6.27-1,.08-5.48.15-6.45.27Z"/><path class="cls-7" d="M220.46,6.77c.44,2.17,3.24.81,3.58.78.88-.22,1.64-.42,2.4-.57a1.79,1.79,0,0,1,1.93.71s1.71,1.78-1.68,3a27.11,27.11,0,0,1-7.12,1,2.75,2.75,0,0,1-2.4-1.72,7.16,7.16,0,0,1-.67-3.55s-.15-1.68.54-2.24C217,4.22,220.17,1.86,220.46,6.77Z"/><path class="cls-7" d="M294.74,12.94c.25-2.18-1.07-2.09-2.28-2.29-.89-.07-12.7.2-13.46.11a1.79,1.79,0,0,1-1.59-1.26s-.7-2.52,2.87-2.67c13.14-1,16.45.62,16.45.62,1,.41,2,2.45,2.09,3.45a7,7,0,0,1-.45,3.53s-.37,1.64-1.18,1.95C297.19,16.38,293.51,17.64,294.74,12.94Z"/><path class="cls-7" d="M272.16,16.1s.73.87,2.23-.2a6.25,6.25,0,0,0,1.24-1.16,5.35,5.35,0,0,0,.92-3.62c-.95-4.27-4.05-2.71-4.05-2.71a1.26,1.26,0,0,0-.56,1.87,5.26,5.26,0,0,1,.59,1.93S270.93,15.17,272.16,16.1Z"/><path class="cls-8" d="M207.84,5a3.44,3.44,0,1,1-3.36-3.51A3.44,3.44,0,0,1,207.84,5Z"/><path class="cls-9" d="M289.12,2.88A3,3,0,1,1,286,.05,3,3,0,0,1,289.12,2.88Z"/><path class="cls-10" d="M264.49,28.64a3,3,0,1,1-2.93-3.07A3,3,0,0,1,264.49,28.64Z"/><path class="cls-11" d="M227.34,25.78c.29-1.38,2.75-1.63,2.28-3.35-.6-2.14-2.81-2-4.44-1.14s-2.44,3-1.09,5.43,4.41,4.82,6,3.19C231.09,28.91,226.83,28.22,227.34,25.78Z"/><path class="cls-11" d="M227.88,17.89a1.12,1.12,0,0,1,1.1,1.16,1.13,1.13,0,1,1-1.1-1.16Z"/><path class="cls-11" d="M225.54,18.9a.74.74,0,0,1,.72.76.75.75,0,1,1-.72-.76Z"/><path class="cls-11" d="M224,19.93a.67.67,0,1,1-.68.65A.66.66,0,0,1,224,19.93Z"/><path class="cls-11" d="M223,21.22a.48.48,0,0,1,.47.5.47.47,0,0,1-.49.47.48.48,0,0,1-.47-.49A.49.49,0,0,1,223,21.22Z"/><path class="cls-11" d="M222.62,22.38a.32.32,0,0,1,.3.32.31.31,0,0,1-.62,0A.33.33,0,0,1,222.62,22.38Z"/><path class="cls-7" d="M250.14,16.38a.51.51,0,0,1-.51.51h-.29a.51.51,0,0,1-.52-.51h0a.52.52,0,0,1,.52-.52h.29a.51.51,0,0,1,.51.52Z"/><path class="cls-7" d="M255.58,16.38a.51.51,0,0,1-.52.51h-.29a.51.51,0,0,1-.52-.51h0a.52.52,0,0,1,.52-.52h.29a.52.52,0,0,1,.52.52Z"/><path class="cls-7" d="M254.51,3.57h-.39V.64a.28.28,0,0,0-.28-.27h-3.5a.27.27,0,0,0-.27.27V3.57h-.4a2.19,2.19,0,0,0-2.13,2.25v8.3a2.27,2.27,0,0,0,1.14,2,.69.69,0,0,1,.61-.4h.38a.67.67,0,0,1,.67.68H254a.69.69,0,0,1,.69-.69h.39a.69.69,0,0,1,.57.31,2.27,2.27,0,0,0,1-1.88V5.82A2.19,2.19,0,0,0,254.51,3.57Zm-3.75-2.34a.19.19,0,0,1,.17-.19h2.37a.18.18,0,0,1,.18.19V3.08a.18.18,0,0,1-.18.19h-2.37a.19.19,0,0,1-.17-.19Zm-.15,5.57h3c.73,0,1.32.4,1.32.88s-.59.88-1.32.88h-3c-.72,0-1.32-.39-1.32-.88S249.89,6.8,250.61,6.8Zm3,6.24h-3c-.73,0-1.32-.4-1.32-.88s.59-.88,1.32-.88h3c.73,0,1.33.39,1.33.88S254.39,13,253.66,13Z"/><path class="cls-7" d="M263.78,19.7c-.62-.54-3.85.21-4.59.27-1,.08-5.48.14-6.45.26a3.09,3.09,0,0,0-.55.06h0s-9.62-.26-11.14-.54c-1.31-.24-3,2.7-.1,3.36,0,0,7,.6,9.05.57,0,0,.58,0,.53.42h0c-.05.44-.12,1-.22,2.08,0,0-.54,3.22.6,5.14,3.27,2.5,3.41-2.87,3.41-2.87,0-1.43,0-2.4,0-2.4-.13-2.8.42-2.08,1.41-2.35s8.08-.82,8.55-1.81A1.72,1.72,0,0,0,263.78,19.7Z"/><path class="cls-7" d="M254.49,20.13a2,2,0,0,1-2,2.05h0a2,2,0,0,1-1.94-2.05v-.65a2,2,0,0,1,1.94-2.06h0a2,2,0,0,1,2,2.06Z"/><path class="cls-7" d="M244.87,12a1.3,1.3,0,0,0-1.06.82c-.65,0-3.05.55-1.79-1,3.47-3.46.81-3.72.81-3.72-.62,0-1.79,1.19-1.79,1.19l-.45.4-.22-.2c-.13-.18-1.55-.6-.11-2.31,3.47-3.46.8-3.72.8-3.72-.61,0-1.79,1.19-1.79,1.19a11.6,11.6,0,0,0-2.36,2.77c-.58.84-1.45,2.66-.72,3.61a14.53,14.53,0,0,0,2.09,1.68c-.48.93-.9,2.21-.32,2.95,0,0,.93,1.31,4.2.55a9.86,9.86,0,0,0,1.77-.3,1.42,1.42,0,0,0,1.44,1.1,1.46,1.46,0,0,0,1.18-1.68l-.19-2A1.45,1.45,0,0,0,244.87,12Z"/><path class="cls-7" d="M265.63,13.14a1.2,1.2,0,0,0-1.1.56c-.6-.09-2.88,0-1.46-1.18,3.75-2.54,1.37-3.25,1.37-3.25-.56-.12-1.83.78-1.83.78l-.48.29-.17-.22c-.09-.19-1.3-.82.3-2.13,3.76-2.54,1.37-3.24,1.37-3.24-.55-.13-1.83.77-1.83.77a11,11,0,0,0-2.63,2.11c-.67.67-1.78,2.18-1.28,3.17a14.16,14.16,0,0,0,1.62,1.89c-.6.76-1.2,1.86-.81,2.63,0,0,.62,1.35,3.73,1.22a8.77,8.77,0,0,0,1.67,0,1.3,1.3,0,0,0,1.11,1.25,1.35,1.35,0,0,0,1.37-1.32l.16-1.82A1.34,1.34,0,0,0,265.63,13.14Z"/><path class="cls-12" d="M239.63,38.61c.53,0,.8,0,.8.12s0,.15-.11.16-.11.08-.11.21v1.32h1.39c.1,0,.14.06.14.16v.34c0,.11,0,.17-.14.17h-2.19c0,.57,0,1.07,0,1.49h1.84c.1,0,.14.05.14.16,0,1.52-.06,2.61-.13,3.27a8.77,8.77,0,0,1-.3,1.76.92.92,0,0,1-1,.64c-.46,0-.7-.08-.71-.23a1.58,1.58,0,0,0-.28-.58v-.08a7.3,7.3,0,0,0,1,.08c.22,0,.37-.14.45-.43a6.69,6.69,0,0,0,.19-1.36c0-.52.07-1.38.09-2.57h-1.32c0,.32,0,.59-.06.82a14.1,14.1,0,0,1-.34,2.19,5,5,0,0,1-.46,1.21,3.44,3.44,0,0,1-.62.9c-.2-.2-.37-.39-.51-.56a2.61,2.61,0,0,0,.43-.64,6,6,0,0,0,.46-1.19,13.31,13.31,0,0,0,.29-2c.07-.64.11-1.58.13-2.83h-1.07c-.08,0-.12-.06-.12-.17v-.34c0-.1,0-.16.12-.16h1.87V38.73C239.46,38.65,239.52,38.61,239.63,38.61Zm6.87,3.2a.2.2,0,0,0-.11,0,3.83,3.83,0,0,1-1.21.56h0a9.19,9.19,0,0,0,.19,1.67l0,.11.09,0a3.43,3.43,0,0,0,.66-.47,4.08,4.08,0,0,0,.48-.56s.05-.07.08-.07l.66.47a.22.22,0,0,1,.13.2s-.05.08-.16.08a.3.3,0,0,0-.24.09,7.51,7.51,0,0,1-1.52,1c0,.18.1.36.16.53a6,6,0,0,0,.64,1.18,8,8,0,0,0,1.12,1.22.14.14,0,0,1-.09.12l-.43.31a.22.22,0,0,1-.18.08,7.3,7.3,0,0,1-.81-.9,6.67,6.67,0,0,1-.77-1.26,8.36,8.36,0,0,1-.5-1.63,13,13,0,0,1-.24-2,5,5,0,0,1-.77.06v4.55c.4-.12.83-.27,1.31-.45.06,0,.09,0,.09.11s-.07.31-.1.44,0,.19-.11.21a18.81,18.81,0,0,1-2.55.67c-.12,0-.19.06-.21.13s-.06.13-.08.13a.14.14,0,0,1-.14-.11l-.24-.62a.12.12,0,0,1,.1-.13,10.52,10.52,0,0,0,1.1-.17h.06V41.81c0-.08.05-.12.13-.12l.6.22a6.21,6.21,0,0,0,1.16-.14,3.2,3.2,0,0,0,1.29-.61.19.19,0,0,1,.13-.07.15.15,0,0,1,.12.07q.54.44.54.57c0,.14,0,.2-.11.2Zm-3.37-3.17.72.29c.09,0,.13.1.13.14a.12.12,0,0,1-.1.12q-.1,0-.12.12c-.07.28-.14.52-.2.72H247c.08,0,.12.06.12.17v.34q0,.18-.12.18H243.3c-.12.3-.26.59-.4.86a5,5,0,0,1-.49.69.8.8,0,0,1-.23,0,3.52,3.52,0,0,0-.42-.15s-.07,0-.07-.06a.1.1,0,0,1,0-.09,5.1,5.1,0,0,0,.71-1.16,6.4,6.4,0,0,0,.34-.84c.09-.32.19-.72.29-1.21Q243.1,38.64,243.13,38.64Z"/><path class="cls-12" d="M248.5,43.59h1.68c.14,0,.22,0,.22.12v2.74a2.69,2.69,0,0,0,0,.38,1.77,1.77,0,0,0,.55.54,2.77,2.77,0,0,0,1.3.23h2.92c.26,0,.7,0,1.31-.09s1-.13,1.32-.2H258a.07.07,0,0,1,.08.08,7.16,7.16,0,0,0-.34.68q0,.21-.21.21h-5.22a3.11,3.11,0,0,1-1.81-.47,2.32,2.32,0,0,1-.54-.64c-.31.28-.59.55-.83.79-.15.09-.23.18-.24.3s0,.16-.07.16-.07,0-.12-.11l-.54-.78a5.78,5.78,0,0,0,1.32-.78c.1,0,.14-.13.14-.29V44.26H248.5c-.09,0-.14-.06-.14-.17v-.34C248.36,43.64,248.41,43.59,248.5,43.59Zm.42-2.5c.32.16.57.31.77.43s.45.32.62.46a.3.3,0,0,1-.06.09,4.77,4.77,0,0,1-.32.47,7.12,7.12,0,0,0-.84-.6,4.42,4.42,0,0,0-.59-.29,2.23,2.23,0,0,1,.32-.48C248.86,41.12,248.89,41.09,248.92,41.09Zm.33-2.24c.28.14.51.27.69.37l.54.39a.29.29,0,0,1,0,.1,2.83,2.83,0,0,1-.34.45,7.81,7.81,0,0,0-.73-.5,3.05,3.05,0,0,0-.54-.25,2.16,2.16,0,0,1,.34-.47Q249.22,38.85,249.25,38.85Zm3-.21c.45,0,.68,0,.68.09s0,.13-.09.14-.09.08-.09.2V40.2h1.15c.09,0,.13.06.13.18v.34c0,.11,0,.17-.13.17h-1.48v1.22h1.44a.12.12,0,0,1,.13.13c0,1.3-.05,2.23-.12,2.8a6.8,6.8,0,0,1-.29,1.52c-.12.36-.43.54-.94.54s-.57-.07-.59-.21a1.89,1.89,0,0,0-.23-.56v-.08a8.15,8.15,0,0,0,.82,0c.2,0,.34-.12.4-.37a4.9,4.9,0,0,0,.16-1.11c0-.44.08-1.14.09-2.12h-.88a7.27,7.27,0,0,1-.22,1.61,4.51,4.51,0,0,1-.6,1.34,3.3,3.3,0,0,1-.66.77l-.11,0a2,2,0,0,0-.39-.26.25.25,0,0,1,0-.14,3.1,3.1,0,0,0,.71-.91,4.41,4.41,0,0,0,.44-1.28,7.4,7.4,0,0,0,.16-1.69V40.89h-.81c-.08,0-.12-.06-.12-.17v-.34q0-.18.12-.18h1.2V38.73C252.13,38.67,252.18,38.64,252.29,38.64Zm3,0,.65.25c.07.06.1.11.1.14a.12.12,0,0,1-.08.12s-.08,0-.1.09a6.35,6.35,0,0,1-.22.79h2.13c.06,0,.09,0,.09.13v.34q0,.18-.09.18h-2.37a2.71,2.71,0,0,1-.2.42,4.61,4.61,0,0,1-.37.59.46.46,0,0,1-.22,0,3.2,3.2,0,0,0-.39-.16c-.05,0-.08,0-.08-.06a.09.09,0,0,1,0-.07,3.63,3.63,0,0,0,.57-1,7.26,7.26,0,0,0,.27-.7,9.44,9.44,0,0,0,.22-1S255.23,38.64,255.25,38.64ZM255,41.73h2.24a.29.29,0,0,1,.19.05c.15.1.23.19.23.25l-1.14,1.43v.67h1.22c.09,0,.13,0,.13.12v.42c0,.12,0,.18-.13.18h-1.22v1.47c0,.51-.5.77-1.48.77h-.2s-.07-.07-.09-.19a1.22,1.22,0,0,0-.16-.5c0-.06,0-.08,0-.08a1.75,1.75,0,0,0,.42.08c.49,0,.73-.13.73-.38V44.85h-1.07c-.08,0-.11-.06-.11-.18v-.42c0-.08,0-.12.11-.12h1.07v-1c0-.09.05-.13.17-.13l.06,0,.55-.66H255c-.09,0-.13-.06-.13-.16v-.35C254.83,41.77,254.87,41.73,255,41.73Z"/><path class="cls-12" d="M261.75,40.72s0,0,.06.07c.16.35.24.53.24.55s0,0-.07.07a12.77,12.77,0,0,1-1.26.88c-.22.14-.48.3-.78.46a.17.17,0,0,0-.08.16c0,.09,0,.13-.09.13s-.26-.2-.62-.61a.17.17,0,0,1-.06-.12.07.07,0,0,1,.06-.06,4.08,4.08,0,0,0,.75-.33,9.79,9.79,0,0,0,1-.62c.3-.2.55-.39.76-.55A.13.13,0,0,1,261.75,40.72Zm-.67,1.72h5.82c.12,0,.18.05.18.14V47c0,.09-.06.13-.18.13H266a9.31,9.31,0,0,0,.92.37c.3.09.73.19,1.3.3.08,0,.13.06.13.09a2.16,2.16,0,0,1-.47.59l-.16,0a13.21,13.21,0,0,1-2.42-.86s-.08,0-.08,0,.12-.2.37-.42h-2.88c.23.22.35.34.35.38s0,.07-.11.07-.22,0-.23.06a22.21,22.21,0,0,1-3,.91.18.18,0,0,1-.17-.09,1.35,1.35,0,0,0-.23-.28c-.05,0-.08-.09-.08-.12s.05-.07.14-.08a12.2,12.2,0,0,0,1.42-.39,10.24,10.24,0,0,0,1.18-.46h-.91c-.12,0-.18,0-.18-.13V42.58C260.9,42.49,261,42.44,261.08,42.44ZM259.43,39h2.2a.11.11,0,0,1,.12.12v.43c0,.11,0,.17-.12.17h-2.2c-.08,0-.12-.06-.12-.17v-.43A.11.11,0,0,1,259.43,39Zm2.24,4.81h4.64v-.76h-4.64Zm0,1.3h4.64v-.66h-4.64Zm4.64,1.35v-.7h-4.64v.7Zm-2.44-8a2.49,2.49,0,0,1,.75.42c0,.07,0,.1-.08.1a.26.26,0,0,0-.21.1l-.12.23H268c.1,0,.17,0,.19,0s.24.19.24.24L267.32,41a.12.12,0,0,1-.08,0c-.39-.12-.59-.21-.59-.29l.63-.8H265.8a1.82,1.82,0,0,0,.11.3,2.45,2.45,0,0,0,.35.51,3.71,3.71,0,0,0,.55.5,4.39,4.39,0,0,0,.51.32,5.05,5.05,0,0,0,.89.32l.57.12c.05,0,.07,0,.07,0a.14.14,0,0,1-.05.13,2.71,2.71,0,0,0-.36.41.22.22,0,0,1-.19.08,3.69,3.69,0,0,1-1-.34,5.51,5.51,0,0,1-.81-.5c-.24-.2-.43-.37-.59-.52a3.08,3.08,0,0,1-.43-.61.41.41,0,0,1,0-.08c0,.08-.09.15-.13.22a4.48,4.48,0,0,1-.41.53,3.45,3.45,0,0,1-.56.45,3.71,3.71,0,0,1-.61.33c-.18.07-.37.13-.58.19a.17.17,0,0,1-.14-.07l-.34-.41c0-.05-.06-.08-.06-.1s0,0,0-.05a3,3,0,0,0,.6-.14,3.22,3.22,0,0,0,.49-.23,2.54,2.54,0,0,0,.57-.4,2,2,0,0,0,.4-.45,1.73,1.73,0,0,0,.25-.41s0-.09.07-.14h-1.19l-.22.23a5.11,5.11,0,0,1-.72.66.22.22,0,0,1-.17-.09l-.27-.23a.15.15,0,0,1-.06-.11l.54-.47a5.39,5.39,0,0,0,.6-.74,5.61,5.61,0,0,0,.35-.69A0,0,0,0,1,263.87,38.48Z"/><path class="cls-12" d="M269.9,40.2h3.43q.12,0,.12.18v.34c0,.11,0,.17-.12.17H269.9c-.08,0-.12-.06-.12-.17v-.34Q269.78,40.2,269.9,40.2Zm.16,4.7h3.09q.18,0,.18.12v3.29c0,.09-.06.14-.18.14h-.43c-.11,0-.16-.05-.16-.14V47.8h-1.89v.56c0,.09-.06.13-.18.13h-.43c-.11,0-.16,0-.16-.13v-3.3A.14.14,0,0,1,270.06,44.9Zm.23-3.17h2.77c.09,0,.13.06.13.16v.35c0,.11,0,.16-.13.16h-2.77c-.09,0-.13,0-.13-.16v-.35C270.16,41.79,270.2,41.73,270.29,41.73Zm0,1.51h2.77c.09,0,.13.06.13.18v.33c0,.12,0,.18-.13.18h-2.77c-.09,0-.13-.06-.13-.18v-.33C270.16,43.3,270.2,43.24,270.29,43.24Zm.07-4.34H273c.08,0,.13.06.13.17v.34c0,.11,0,.16-.13.16h-2.66c-.08,0-.12,0-.12-.16v-.34C270.24,39,270.28,38.9,270.36,38.9Zm.31,8.24h1.89V45.57h-1.89Zm4.33-7.6h-1c-.08,0-.12-.06-.12-.17V39q0-.18.12-.18h4.36a.47.47,0,0,1,.16.1,1,1,0,0,1,.18.38,12.19,12.19,0,0,0-.4,2,14.28,14.28,0,0,0-.11,1.71,24.52,24.52,0,0,0,.18,3.39c.12.67.23,1,.33,1s.18-.07.22-.2a4.61,4.61,0,0,0,.28-1.15c0-.07.07-.1.12-.1a.1.1,0,0,1,.1.07,1.94,1.94,0,0,0,.35.28s.06.08.06.17a5.19,5.19,0,0,1-.69,1.72.57.57,0,0,1-.44.26c-.2,0-.4-.24-.59-.72a6.86,6.86,0,0,1-.47-2,22.27,22.27,0,0,1-.16-2.76,17.87,17.87,0,0,1,.44-3.54h-2.23v3.28h1.2q.12,0,.12.18v.33q0,.18-.12.18h-1.2v4.85c0,.09-.05.13-.16.13h-.42c-.09,0-.14,0-.14-.13V43.51h-1.09q-.12,0-.12-.18V43q0-.18.12-.18H275Z"/><path class="cls-12" d="M281.47,39.1h8.35a.12.12,0,0,1,.14.13v.42c0,.11,0,.17-.14.17h-3.75v4.27h4.25c.1,0,.14,0,.14.12v.42c0,.12,0,.18-.14.18h-4.25v3.54c0,.09-.07.13-.22.13h-.41c-.12,0-.18,0-.18-.13V44.81H281c-.09,0-.14-.06-.14-.18v-.42c0-.08.05-.12.14-.12h4.3V39.82h-3.79c-.09,0-.14-.06-.14-.17v-.42A.12.12,0,0,1,281.47,39.1Zm1.26,1.48a13,13,0,0,1,.7,1.4,6.76,6.76,0,0,1,.43,1.22s-.25.12-.76.26a6.89,6.89,0,0,0-.3-1.06,10.63,10.63,0,0,0-.71-1.44C282.09,40.91,282.31,40.79,282.73,40.58Zm5.92,0,.74.41c.07,0,.1.1.1.14s-.05.12-.15.14a.24.24,0,0,0-.24.16A15.33,15.33,0,0,1,288,43.51q-.15,0-.18-.06l-.52-.32a5.87,5.87,0,0,0,.69-1.2,9.21,9.21,0,0,0,.47-1.28A.16.16,0,0,1,288.65,40.54Z"/><path class="cls-12" d="M295.11,38.61c.67.21,1,.35,1,.42s-.05.11-.14.11-.15,0-.15.09c-.31.68-.7,1.44-1.18,2.29a9.48,9.48,0,0,1-.72,1.16c1.81-.17,3.6-.38,5.39-.65a12.1,12.1,0,0,0-1.16-1.69c0-.06.2-.18.62-.38a16,16,0,0,1,1.3,1.94,10.07,10.07,0,0,1,.82,1.72,2.34,2.34,0,0,1-.77.27,6.12,6.12,0,0,0-.45-1.2q-3.15.44-7,.81a.32.32,0,0,0-.29.17c0,.12-.08.17-.16.17s-.28-.32-.56-1l1.44-.1A28.41,28.41,0,0,0,294.55,40a9.71,9.71,0,0,0,.45-1.35S295,38.61,295.11,38.61Zm-1.9,5.52h6.37c.11,0,.16,0,.16.13v4.1c0,.09-.05.13-.16.13h-.42c-.11,0-.17,0-.17-.13V47.8h-5.2v.51c0,.09-.06.14-.16.14h-.42c-.12,0-.18-.05-.18-.14v-4A.16.16,0,0,1,293.21,44.13Zm.58,3H299V44.82h-5.2Z"/><path class="cls-13" d="M43.22,44.57h7.49v-.95h1.61v.94H59.6V46H54a9.2,9.2,0,0,0,1.94,1.24,19.69,19.69,0,0,0,3.83,1.36L59,50.23a19.3,19.3,0,0,1-4.41-2,9.11,9.11,0,0,1-2.29-2.09v4.8h-1.6V46a8.18,8.18,0,0,1-1.89,1.83,20,20,0,0,1-4.76,2.36l-.9-1.52A20.61,20.61,0,0,0,47.66,47,7,7,0,0,0,49,46H43.21Zm2.7-10.47,1.48.24A15.91,15.91,0,0,1,46,38c.37,0,.7-.08,1-.13.27-.54.53-1.11.77-1.7l1.36.53a28.5,28.5,0,0,1-2.77,4.84c.42,0,.82-.1,1.18-.16,0-.4-.07-.78-.1-1.14l1.18-.15c.18,1.08.35,2.24.51,3.5l-1.41.08c0-.39,0-.76-.07-1.11a31.78,31.78,0,0,1-3.62.52l-.19-1.39,1,0a21.45,21.45,0,0,0,1.52-2.52q-1,.16-2.4.3l-.14-1.28.65,0A15.56,15.56,0,0,0,45.92,34.1Zm5.13-.27,1.55.2a6.47,6.47,0,0,1-.46,1.45h1.73v7.76H49.23V35.48h1.36A8.72,8.72,0,0,0,51.05,33.83ZM52.46,42V39.86H50.64V42Zm-1.82-3.34h1.82v-1.8H50.64ZM56.06,34l1.36.46a25.43,25.43,0,0,1-1.29,3.44l1-.1c.21-.48.42-1,.63-1.48l1.34.53a26.94,26.94,0,0,1-2.79,5l1.34-.1c-.07-.42-.14-.84-.22-1.27l1.11-.29a28.4,28.4,0,0,1,.77,3L58,43.71c0-.28-.08-.55-.14-.8-1,.12-2.18.24-3.46.34l-.3-1.37.76,0A22.34,22.34,0,0,0,56.54,39c-.68.12-1.39.24-2.16.34l-.3-1.3a5.07,5.07,0,0,0,.6-.06A27.63,27.63,0,0,0,56.06,34Z"/><path class="cls-13" d="M65.46,33.77c.64.75,1.16,1.39,1.55,1.94l-1,.72h3.19v1.61h-3.4c0,.94,0,1.81-.07,2.61h3.17c0,4.6,0,7.33-.14,8.17a2.28,2.28,0,0,1-.44,1.31,1.93,1.93,0,0,1-1.38.38c-.4,0-.85,0-1.36-.07l-.26-1.74a9.66,9.66,0,0,0,1.62.14c.24,0,.37-.23.39-.71s.08-2.54.09-5.81H65.63c-.07,1-.17,1.84-.28,2.6a26.91,26.91,0,0,1-1.66,5.9l-1.34-1.18a21.38,21.38,0,0,0,1.51-5.17,44.74,44.74,0,0,0,.38-6.43H62.62V36.43h2.8a19.46,19.46,0,0,0-1.18-1.94Zm6.06.07,1.56.58q-.28.86-.57,1.53h6v1.53H71.84l-.18.31a12.4,12.4,0,0,1-2,2.74l-1.32-1.24a15.26,15.26,0,0,0,2-2.46A15.14,15.14,0,0,0,71.52,33.84Zm5.15,4.27,1,1.52c-.94.31-1.91.58-2.91.82.18.88.37,1.69.57,2.41a8.34,8.34,0,0,0,2.55-1.77l1,1.18a14,14,0,0,1-3,2.21c.16.44.32.83.48,1.18a10.27,10.27,0,0,0,2.7,3.65L78,50.91a12.3,12.3,0,0,1-3-4.11,28.91,28.91,0,0,1-1.83-6c-.41.1-.82.18-1.21.26v7.18c1-.26,1.89-.55,2.74-.85v1.69a46.16,46.16,0,0,1-5.16,1.6l-.47-1.77c.43-.08.85-.17,1.25-.27V39.87A34,34,0,0,0,76.67,38.11Z"/><path class="cls-13" d="M81.75,37h3V33.85h1.68V37H90.2c0,6.45-.08,10.28-.22,11.47a3,3,0,0,1-.67,1.84,3,3,0,0,1-2.08.56c-.4,0-.87,0-1.41-.07l-.27-1.91a8.4,8.4,0,0,0,1.68.16c.59,0,.92-.38,1-1.16.13-.94.2-4,.23-9.24h-2a30.87,30.87,0,0,1-.67,5.94,20.52,20.52,0,0,1-2.67,6.28l-1.41-1.33A16.39,16.39,0,0,0,84.13,44a23.71,23.71,0,0,0,.62-5.41h-3ZM98,36.18V50.84H96.26V49.52H92.73v1.39H91V36.17ZM92.73,47.85h3.53v-10H92.74Z"/><path class="cls-13" d="M116.1,44.53V49h1.48v1.52H101.26V48.94h1.29V44.53Zm-13.91-9.82h5.73v8.5h-5.73Zm4.17,7v-2h-2.62v2Zm-2.62-3.32h2.62V36.23h-2.62Zm.49,10.58h2.32V46.15h-2.32Zm3.88,0h2.32V46.15h-2.33Zm2.12-14.36h6.51v7.77a1.79,1.79,0,0,1-.37,1.21,1.43,1.43,0,0,1-1.18.44h-2l-.37-1.53,1.9.08c.29,0,.44-.17.44-.49v-.66h-4.5a11.87,11.87,0,0,1-1.16,3l-1.34-1.24a7.79,7.79,0,0,0,1.06-2.39,14.34,14.34,0,0,0,.23-2.4V34.58ZM110.9,40h4.28V38.71H111C111,39.15,110.94,39.59,110.9,40Zm.1-2.71h4.18V36H111Zm1,11.62h2.41V46.15H112Z"/><path class="cls-13" d="M129.36,33.87a17.3,17.3,0,0,1,1,1.79h6.67v1.67H123.84V42a23.75,23.75,0,0,1-.38,4.08,17.86,17.86,0,0,1-1.58,4.34l-1.49-1.29a11.39,11.39,0,0,0,1.45-3.58,22.87,22.87,0,0,0,.3-3.55V35.66h6.4a13.17,13.17,0,0,0-1.11-1.52Zm-.44,3.92h1.78v1.79h5.7v1.67h-5.7v2.42h4.87v7.26h-1.69v-1h-7.28v1h-1.67V43.67h4Zm-2.33,10.43h7.28V45.29h-7.28Z"/><path class="cls-14" d="M20.37,44.22l-3.14,3.23-3.11-3.21C8.32,44.59,4,45.81,4,47.26c0,1.72,6,3.12,13.46,3.13S31,49,31,47.27C31,45.78,26.43,44.53,20.37,44.22Z"/><path class="cls-14" d="M23.36,17.38a5.67,5.67,0,1,1-11.33,0,5.67,5.67,0,1,1,11.33,0Z"/><path class="cls-14" d="M35.38,18.41A18,18,0,0,0,17.7.2,17.94,17.94,0,0,0,0,18.39,18.47,18.47,0,0,0,4.58,30.63h0l.22.24c.1.12.22.23.32.35l12.2,13.26L24,37.58h0s-13.76-14-13.83-14.14a10,10,0,0,1-2-6.05A9.68,9.68,0,0,1,17.7,7.56a9.69,9.69,0,0,1,9.53,9.82,9.68,9.68,0,0,1-9.52,9.81L26,35.56l0,0,3.59-3.69c.42-.4.84-.82,1.23-1.26h0A18.44,18.44,0,0,0,35.38,18.41Z"/><path class="cls-14" d="M109.91,30.32a1.75,1.75,0,0,0-.67-.68,2.64,2.64,0,0,0-.61-.23,1.28,1.28,0,0,0-.52,1.46l0,.08L108,31a6.06,6.06,0,0,1-1,.07c-.67,0-1.47-.05-2.2-.1a18.5,18.5,0,0,0-2.1-.06,4.09,4.09,0,0,1-1.47-.15,1.47,1.47,0,0,0,.48.93c.71.42,2.06-.29,2.87-.07.18.05,1.64.09,1.87.08.54,0,1.07.07,1.61.08a3.27,3.27,0,0,0,1.7-.23A.85.85,0,0,0,109.91,30.32Z"/><path class="cls-14" d="M80,30.46a3,3,0,0,0-1.1.35l-.27.16a1.49,1.49,0,0,1-.78.3h0a3.56,3.56,0,0,1-.73-.09,2.89,2.89,0,0,1-1.2-.43c-.76-.57-.7-1.74-.65-2.69,0-.16,0-.3,0-.44a5.71,5.71,0,0,0-.29-2.16l-.12.06c-.59.26-.44,1.36-.38,1.86a9.69,9.69,0,0,0,.59,2.5,7.35,7.35,0,0,0,1,1.81c.3.08,3.12,0,4.15,0a.26.26,0,0,0,.26-.13A.84.84,0,0,0,80,30.46Z"/><path class="cls-14" d="M102.69,30.7a19.35,19.35,0,0,1,2.12.07,17.54,17.54,0,0,0,3.12.05,1.47,1.47,0,0,1,.46-1.45h-.23a4.74,4.74,0,0,1-2.32-.47.11.11,0,0,0,0,.05c0,.11-.09.32-.22.33s-.26,0-.27-.14a1.39,1.39,0,0,1,.07-.52,1.94,1.94,0,0,1-.29-.28c-.13.22-.29.44-.45.36s-.21-.12-.17-.24a2.15,2.15,0,0,1,.34-.54,2.15,2.15,0,0,1-.17-.48l-.12.13a1.59,1.59,0,0,1-.32.26c-.15.09-.4,0-.34-.22a1.15,1.15,0,0,1,.42-.43,2.19,2.19,0,0,1,.25-.2.44.44,0,0,1,.08-.51c.2-.19.54-.07.74-.28a.67.67,0,0,0,.2-.44.56.56,0,0,0-.35-.49,1.83,1.83,0,0,0-1.16.17c.45-2,1-4.39,1.08-4.59.21-.63-.34-.94-.69-1.11L93.63,14.13l0,0,0,0h11.38a.87.87,0,0,0,.84-.79s0,0,0-.07V10.89s0-.05,0-.07a.88.88,0,0,0-.82-.79H92.94l-.06,0a.14.14,0,0,1,0-.07V6.31a.13.13,0,0,0,0-.06.64.64,0,0,1,0-.09.12.12,0,0,1,.1,0h10.75a.86.86,0,0,0,.79-.88V3a.86.86,0,0,0-.8-.89H77.58a.84.84,0,0,0-.84.83.13.13,0,0,0,0,.06V5.2a.13.13,0,0,0,0,.06.85.85,0,0,0,.74.83H88.41a.1.1,0,0,1,.09,0,.16.16,0,0,1,0,.09V9.9h0a.15.15,0,0,1,0,.1l-.06,0H76.25a.86.86,0,0,0-.8.83v2.37a.86.86,0,0,0,.84.84H87.93l.14,0a.26.26,0,0,1,0,.19s0,0,0,0l-1.77,7.87a.14.14,0,0,1-.07.06h0l-8,1.56c-.16-.33-.39-.74-.63-.81a.3.3,0,0,0-.27.08.85.85,0,0,0-.19.54c0,.12.09.56,0,.64a10.07,10.07,0,0,1-2,1.09,6.13,6.13,0,0,1,.31,2.24c0,.13,0,.28,0,.44,0,.9-.11,2,.58,2.54a2.6,2.6,0,0,0,1.13.4,3.06,3.06,0,0,0,.74.09,1.37,1.37,0,0,0,.69-.27,1.78,1.78,0,0,1,.3-.17,3,3,0,0,1,.83-.32,2.1,2.1,0,0,1-1.23-1.49,2.46,2.46,0,0,1-.46.28c-.1,0-.31.15-.4,0s-.14-.22-.06-.31a2.55,2.55,0,0,1,.87-.44c0-.12,0-.25,0-.36-.23.07-.88.24-.94,0s0-.25.09-.29a2.66,2.66,0,0,1,.93-.1,4.17,4.17,0,0,1,.15-.46,1.82,1.82,0,0,1-.33,0,1.92,1.92,0,0,1-.4-.09c-.17-.05-.22-.35,0-.41a1.16,1.16,0,0,1,.61,0l.32.07a.47.47,0,0,1,.46-.28c.28,0,.4.4.69.42a.64.64,0,0,0,.48-.14.58.58,0,0,0,.19-.6A.65.65,0,0,0,80.5,26l8.13-.17a.88.88,0,0,0,.45-.41v0l2.3-6.6a.15.15,0,0,1,.09-.09h0a.47.47,0,0,1,.2.07L101,21.48c.09.06.27.06.25.31s.19,2.5.36,3.95a1.1,1.1,0,0,0-.74.05.23.23,0,0,0-.11.24.74.74,0,0,0,.29.46c.08.07.49.25.51.35a3.31,3.31,0,0,1-.25,1.54,4.71,4.71,0,0,0-.16,2s0,.07,0,.12A3.91,3.91,0,0,0,102.69,30.7ZM77.35,26.23a.65.65,0,0,1-.78.51.66.66,0,0,1-.49-.79.64.64,0,0,1,.78-.51A.67.67,0,0,1,77.35,26.23Zm25,1.41a.67.67,0,0,1,.92.09.6.6,0,0,1-.1.87.67.67,0,0,1-.92-.09A.59.59,0,0,1,102.33,27.64Z"/><path class="cls-14" d="M138.78,2.39a.87.87,0,0,0-.57-.3H108.54a.93.93,0,0,0-.92,1V5.14s0,.06,0,.09a.92.92,0,0,0,.9.88h11c.22,0,.22.14.22.21V30.71h0a.89.89,0,0,0,.26.6.81.81,0,0,0,.57.25h2.64a.82.82,0,0,0,.83-.86l0-17.1,10.7,8.23,0,0a.9.9,0,0,0,.47.14.72.72,0,0,0,.41-.11.89.89,0,0,0,.43-.78V17.74a.94.94,0,0,0-.32-.66l0,0L124.58,8.72a1.21,1.21,0,0,1-.47-.9V6.31c0-.19.07-.19.13-.19h13.93A.85.85,0,0,0,139,5.3V3A1,1,0,0,0,138.78,2.39Z"/><path class="cls-14" d="M73.49,30.25l-.42-.82c-1.23-2.4-2.17-4.32-2.81-5.69S69,21,68.37,19.8h0a.08.08,0,0,1,0-.08s0,0,0,0,0,0,0-.05l4-2a.3.3,0,0,0,.14-.11.88.88,0,0,0,.06-1s0,0,0,0l0,0-1.39-2.43h0l-.09-.16h0a.84.84,0,0,0-.71-.39.93.93,0,0,0-.38.08h0l-3.71,1.8a1,1,0,0,1-.12,0l-.1-.08h0l-1-2.38a.16.16,0,0,1,0-.1s0,0,.12-.06l6.55-.8a.87.87,0,0,0,.59-.29.9.9,0,0,0,.17-.68v0l-.3-2A.85.85,0,0,0,72,8.5a.82.82,0,0,0-.62-.27h-.06L59.06,9.45h0a.14.14,0,0,1-.1,0h0s0-.07,0-.12l.33-.94c.26-.8.5-1.49.72-2.13a.12.12,0,0,1,.12-.08H72a.86.86,0,0,0,.83-.76.15.15,0,0,0,0-.07V3a.88.88,0,0,0-.17-.51A.83.83,0,0,0,72,2.09H61.55l.19-.51s0,0,0-.06a1,1,0,0,0-.09-.74A.86.86,0,0,0,61,.37H58.11a.87.87,0,0,0-.79.59V1l-1.18,3.4a.86.86,0,0,0-.54-.18H51.37a.27.27,0,0,1-.08-.07l-.94-3A.85.85,0,0,0,49.6.49H46.85l-.11,0a.83.83,0,0,0-.51.31,1,1,0,0,0-.16.76h0l.2.72c.15.53.31,1.07.51,1.65,0,0,0,0,0,0a.08.08,0,0,1,0,0v0a.13.13,0,0,1-.12.13h-4a.86.86,0,0,0-.84.85V7.35a.88.88,0,0,0,.3.65.83.83,0,0,0,.55.22h1.62s.07,0,.09,0a.81.81,0,0,1,0,.11L43,30.57a.91.91,0,0,0,.26.7s0,0,0,0a1,1,0,0,0,.55.22h2.65a.87.87,0,0,0,.84-.83l0-.5c0-.09,0-.18,0-.27l.61,1.14a.86.86,0,0,0,.72.46h5.39a.79.79,0,0,0,.83-.85V12.45h1.19a.19.19,0,0,1,.12.05s0,0,0,.06v14.8l-.43.22s0,0,0,0a.73.73,0,0,0-.3.29.92.92,0,0,0-.15.45v.06h0V30.8s0,.05,0,.07a.9.9,0,0,0,.4.64.8.8,0,0,0,.44.12.84.84,0,0,0,.35-.07h0l8.28-4h0a.89.89,0,0,0,.45-.71V24.13a.93.93,0,0,0-.32-.64h0a.82.82,0,0,0-.52-.19.85.85,0,0,0-.31.06l0,0-.06,0h0l-.13.07c-.69.36-1.57.82-2.64,1.4l-.52.28h0l0,0h0l-.06,0s0-.09-.06-.1h0V13.93a.12.12,0,0,1,.12-.13h0s.07,0,.13.1h0L69.08,31h0a.88.88,0,0,0,.77.5h2.93a.81.81,0,0,0,.65-.36.89.89,0,0,0,.08-.86S73.5,30.27,73.49,30.25Zm-22.91-16V27.35a.13.13,0,0,1-.1.12h-3c0-.74.1-1.59.15-2.48.08-1.33.16-2.7.24-3.84.18-2.4.35-4.73.49-6.89,0,0,0,0,0,0v0a.2.2,0,0,1,.1,0h1.93a.12.12,0,0,1,.11.07l0,.06ZM54.18,10a.19.19,0,0,1-.13.12H48.76a.13.13,0,0,1-.09-.07h0v0h0v0s0,0,0-.06c0-.18,0-.38,0-.59s.06-.63.08-.93v0h0v0a0,0,0,0,0,0,0l0,0,.08,0H54.8Z"/></g></g></svg>